<?xml version="1.0" standalone="no"?>
<!DOCTYPE svg PUBLIC "-//W3C//DTD SVG 20010904//EN"
 "http://www.w3.org/TR/2001/REC-SVG-20010904/DTD/svg10.dtd">
<svg version="1.0" xmlns="http://www.w3.org/2000/svg"
 width="1280.000000pt" height="272.000000pt" viewBox="0 0 1280.000000 272.000000"
 preserveAspectRatio="xMidYMid meet">

<g transform="translate(0.000000,272.000000) scale(0.100000,-0.100000)"
fill="#000000" stroke="none">
<path d="M7669 2681 c-68 -22 -99 -61 -99 -128 0 -100 103 -161 197 -116 90
42 98 177 14 225 -35 21 -80 28 -112 19z"/>
<path d="M11112 2680 c-102 -23 -132 -156 -51 -224 109 -92 274 26 213 150
-32 63 -90 90 -162 74z"/>
<path d="M0 2475 l0 -125 175 0 c173 0 176 0 200 -25 l25 -24 0 -373 c1 -433
7 -488 70 -614 139 -282 521 -444 1140 -484 91 -6 197 -11 235 -13 l70 -2 3
-185 c4 -227 -2 -282 -33 -318 l-23 -27 -179 -5 -178 -5 -3 -123 -3 -122 1603
2 1603 3 65 23 c81 29 122 54 182 110 95 89 138 189 138 323 0 96 -24 176 -75
254 -63 94 -183 175 -285 191 -47 8 -52 19 -12 27 77 16 146 51 206 107 75 71
112 135 132 231 46 222 -92 434 -321 494 -50 13 -146 15 -593 15 l-533 0 3
250 c3 223 5 251 21 267 15 16 43 19 200 23 l182 5 3 123 3 122 -651 0 -650 0
0 -125 0 -125 178 0 179 0 24 -26 c24 -25 24 -27 27 -270 l3 -244 -811 0 -810
0 0 -120 0 -120 155 0 c169 0 213 -10 237 -52 10 -17 13 -77 13 -238 l0 -215
-100 2 c-305 6 -496 109 -577 311 -23 56 -23 64 -26 489 l-3 433 25 25 c25 25
26 25 206 25 l180 0 0 125 0 125 -810 0 -810 0 0 -125z m3130 -993 c0 -248
-124 -394 -354 -418 l-66 -7 0 257 0 256 210 0 210 0 0 -88z m1151 56 c90 -53
131 -125 131 -225 -1 -111 -72 -207 -176 -238 -40 -12 -125 -15 -438 -15 -213
0 -388 1 -388 3 0 2 24 28 53 58 96 99 146 231 147 382 l0 68 313 -3 312 -3
46 -27z m-54 -733 c67 -20 134 -80 163 -147 27 -62 30 -155 7 -209 -23 -55
-86 -119 -142 -145 l-50 -24 -747 0 -748 0 0 270 0 270 733 0 c622 0 741 -2
784 -15z"/>
<path d="M5470 2526 l0 -74 49 -7 49 -7 4 -291 c5 -321 10 -352 69 -440 37
-56 97 -100 177 -129 47 -17 81 -21 192 -22 117 0 142 3 191 22 78 31 130 71
167 128 61 91 65 119 70 440 l4 292 49 6 49 7 0 74 0 75 -205 0 -205 0 0 -74
0 -75 56 -7 56 -7 -4 -276 c-3 -274 -3 -277 -29 -326 -36 -70 -81 -95 -177
-95 -40 0 -87 6 -105 14 -42 17 -83 66 -97 114 -5 21 -10 151 -10 303 l0 267
55 7 55 6 0 75 0 74 -230 0 -230 0 0 -74z"/>
<path d="M11468 2433 l-3 -108 -57 -3 -58 -3 0 -79 0 -79 58 -3 57 -3 5 -236
5 -236 28 -42 c35 -52 95 -82 184 -89 62 -5 164 10 208 30 l22 10 -30 79 c-24
63 -34 79 -46 73 -48 -19 -88 -16 -116 9 l-30 25 0 188 0 189 93 3 92 3 0 79
0 79 -92 3 -93 3 -3 108 -3 107 -109 0 -109 0 -3 -107z"/>
<path d="M6999 2331 c-43 -14 -72 -32 -111 -69 l-38 -36 0 52 0 52 -139 0
c-76 0 -153 -3 -170 -6 l-31 -6 0 -68 0 -68 55 -7 55 -6 0 -219 0 -218 -52 -9
-53 -8 -3 -73 -3 -72 221 0 221 0 -3 73 c-3 69 -4 72 -28 75 -76 8 -70 -7 -70
186 l0 174 41 36 c46 39 84 51 129 41 58 -13 60 -23 60 -317 l0 -268 170 0
170 0 0 69 c0 75 2 72 -66 86 l-32 6 -4 222 c-4 181 -8 229 -22 262 -37 86
-102 125 -206 124 -36 0 -77 -4 -91 -8z"/>
<path d="M9019 2327 c-63 -18 -130 -59 -169 -104 -132 -150 -130 -433 3 -566
93 -93 266 -129 438 -93 60 13 149 49 149 61 0 3 -14 33 -31 68 l-32 64 -48
-18 c-143 -54 -265 -25 -310 75 -36 80 -48 76 215 76 l234 0 4 53 c12 177 -52
317 -172 371 -56 25 -212 32 -281 13z m173 -148 c24 -13 57 -83 58 -121 l0
-28 -125 0 -125 0 0 26 c0 36 28 91 58 114 28 22 100 27 134 9z"/>
<path d="M9985 2317 c-22 -12 -53 -41 -70 -64 -16 -23 -32 -42 -35 -42 -3 -1
-3 26 -2 59 l4 60 -140 0 c-77 0 -154 -3 -171 -6 l-31 -6 0 -69 0 -68 55 -6
55 -7 0 -218 0 -218 -52 -9 -53 -8 -3 -73 -3 -72 231 0 230 0 0 70 c0 77 2 75
-72 85 l-48 6 0 156 c0 141 2 158 21 184 35 49 92 72 166 66 35 -2 63 -3 63
-2 0 2 11 45 24 95 l25 91 -25 9 c-46 18 -126 11 -169 -13z"/>
<path d="M10398 2326 c-113 -30 -172 -107 -171 -221 1 -136 73 -200 281 -250
113 -27 152 -74 101 -121 -17 -15 -36 -19 -98 -19 -42 0 -88 3 -103 8 -25 6
-28 12 -28 47 l0 40 -80 0 -80 0 0 -103 c0 -122 -4 -117 137 -142 229 -40 402
7 463 125 43 83 34 182 -22 246 -42 47 -86 68 -212 100 -116 29 -156 52 -156
89 0 39 35 55 122 55 86 0 108 -12 108 -61 l0 -29 80 0 80 0 0 105 0 104 -38
11 c-123 32 -295 40 -384 16z"/>
<path d="M7503 2323 c-21 -4 -23 -10 -23 -73 l0 -69 55 -6 55 -7 0 -218 0
-218 -52 -9 -53 -8 -3 -73 -3 -72 221 0 220 0 0 70 c0 76 1 74 -63 85 l-39 6
4 300 3 299 -150 -1 c-82 -1 -160 -4 -172 -6z"/>
<path d="M10943 2323 c-21 -4 -23 -10 -23 -73 l0 -68 55 -7 55 -6 0 -219 0
-219 -37 -6 c-21 -4 -45 -7 -53 -8 -11 -2 -16 -19 -18 -75 l-3 -72 226 0 225
0 0 69 c0 75 3 72 -67 86 l-33 7 0 299 0 299 -152 -1 c-84 -1 -163 -4 -175 -6z"/>
<path d="M7890 2251 c0 -73 5 -81 54 -81 21 0 34 -28 138 -297 l114 -298 119
0 120 0 116 295 c90 227 121 296 136 298 65 10 63 7 63 82 l0 70 -180 0 -180
0 0 -69 c0 -72 6 -81 51 -81 10 0 19 -4 19 -9 0 -6 -24 -78 -54 -161 -30 -83
-58 -165 -62 -183 -6 -27 -14 -9 -70 153 -35 102 -64 188 -64 193 0 4 9 7 19
7 45 0 51 9 51 81 l0 69 -195 0 -195 0 0 -69z"/>
<path d="M11930 2251 c0 -73 5 -81 54 -81 21 0 34 -29 141 -304 l117 -304 -28
-61 c-34 -78 -66 -101 -148 -109 l-63 -7 35 -93 35 -93 51 6 c115 14 186 56
244 142 22 34 97 208 188 437 118 295 156 382 170 384 66 10 64 7 64 82 l0 70
-180 0 -180 0 0 -69 c0 -72 6 -81 51 -81 10 0 19 -4 19 -8 0 -5 -28 -90 -63
-190 l-63 -181 -62 183 c-34 101 -62 186 -62 190 0 3 9 6 19 6 45 0 51 9 51
81 l0 69 -195 0 -195 0 0 -69z"/>
<path d="M9700 1151 c-82 -25 -151 -94 -175 -175 -8 -27 -15 -80 -15 -118 l0
-68 -55 0 -55 0 0 -85 0 -85 55 0 55 0 0 -215 0 -215 -24 0 c-13 0 -38 -3 -55
-6 l-31 -6 0 -74 0 -74 220 0 220 0 0 75 0 74 -50 7 -50 7 0 218 0 219 130 0
130 0 0 -220 0 -220 -27 0 c-69 0 -73 -6 -73 -86 l0 -74 230 0 230 0 0 74 0
73 -37 7 c-21 3 -50 6 -65 6 l-28 0 0 215 0 215 90 0 90 0 0 85 0 85 -90 0
-90 0 0 49 c0 67 17 109 51 126 32 17 105 20 143 5 24 -9 25 -7 50 68 14 42
26 80 26 84 0 16 -109 38 -190 38 -146 0 -225 -42 -276 -147 -22 -43 -29 -75
-32 -139 l-5 -84 -128 0 -129 0 0 58 c0 99 39 139 130 130 23 -2 40 1 40 7 0
8 40 94 68 146 11 22 -216 38 -278 20z"/>
<path d="M11242 1143 l-53 -4 3 -72 3 -72 53 -3 52 -3 0 -398 0 -398 -50 -7
-50 -7 0 -74 0 -75 215 0 215 0 0 75 0 74 -51 7 -51 7 4 478 3 479 -120 -2
c-66 -1 -144 -3 -173 -5z"/>
<path d="M7532 988 c3 -70 4 -73 28 -76 14 -1 40 -5 58 -8 l32 -5 0 -354 0
-355 -29 0 c-16 0 -43 -3 -60 -6 l-31 -7 0 -73 0 -74 264 0 c279 0 387 9 470
41 108 40 167 122 170 234 2 121 -61 209 -175 243 l-57 16 62 31 c87 43 119
92 124 190 6 119 -27 184 -117 229 -79 40 -136 46 -447 46 l-295 0 3 -72z
m558 -116 c41 -20 60 -53 60 -104 0 -95 -44 -128 -172 -128 l-88 0 0 125 0
125 83 0 c58 0 92 -5 117 -18z m3 -403 c49 -13 73 -38 87 -89 16 -59 -4 -117
-49 -147 -30 -20 -46 -23 -137 -23 l-104 0 0 128 c0 71 3 132 7 135 10 11 154
8 196 -4z"/>
<path d="M6710 900 l0 -110 -55 0 -55 0 0 -85 0 -85 54 0 54 0 4 -223 c3 -214
4 -224 28 -272 21 -42 35 -55 83 -79 50 -25 70 -29 140 -29 49 0 105 6 141 17
66 19 65 14 30 132 -13 45 -19 54 -32 48 -10 -4 -40 -9 -67 -12 -42 -3 -54 0
-70 18 -18 20 -20 39 -23 211 l-4 189 96 0 96 0 0 85 0 85 -95 0 -95 0 0 110
0 110 -115 0 -115 0 0 -110z"/>
<path d="M6110 799 c-58 -10 -143 -45 -191 -80 l-29 -21 36 -51 c60 -84 54
-81 114 -50 47 24 66 28 137 28 100 0 116 -11 117 -82 l1 -48 -85 -6 c-225
-16 -340 -104 -340 -259 0 -133 87 -213 230 -212 74 1 124 18 173 62 35 30 35
30 41 8 3 -13 6 -34 6 -47 l0 -24 107 6 c58 4 126 7 150 7 l43 0 0 75 0 75
-44 0 -44 0 -5 218 c-3 150 -8 229 -18 257 -19 54 -76 109 -135 129 -60 20
-191 28 -264 15z m190 -508 c0 -69 0 -69 -37 -92 -47 -29 -122 -32 -152 -5
-30 27 -29 95 2 124 32 30 64 41 130 41 l57 1 0 -69z"/>
<path d="M10654 795 c-62 -13 -126 -41 -177 -77 l-27 -20 42 -59 c23 -33 44
-62 48 -64 3 -2 30 8 60 23 62 30 163 41 209 22 33 -13 54 -54 49 -96 -3 -29
-4 -29 -88 -35 -223 -15 -340 -105 -340 -258 0 -133 86 -213 226 -213 68 -1
142 27 186 69 l26 25 8 -47 7 -48 96 7 c53 3 115 6 139 6 l42 0 0 75 0 75 -34
0 -34 0 -4 217 c-3 216 -3 218 -31 276 -36 72 -79 102 -173 122 -84 18 -149
18 -230 0z m206 -499 c0 -59 -3 -66 -29 -89 -33 -27 -90 -42 -124 -31 -41 12
-57 35 -57 79 0 68 51 103 153 104 l57 1 0 -64z"/>
<path d="M11920 796 c-117 -26 -201 -94 -253 -204 -30 -63 -32 -74 -32 -182 0
-96 4 -124 23 -172 48 -120 155 -200 289 -217 134 -17 248 15 331 93 86 81
128 199 120 335 -7 96 -37 176 -89 235 -52 59 -107 91 -189 110 -76 18 -125
19 -200 2z m181 -194 c36 -40 51 -98 51 -197 0 -103 -14 -154 -52 -190 -26
-25 -40 -30 -79 -30 -29 0 -58 7 -75 18 -102 67 -97 383 8 428 11 5 43 7 70 5
41 -3 55 -9 77 -34z"/>
<path d="M8528 793 l-78 -4 0 -74 0 -74 48 -3 47 -3 5 -240 c5 -261 8 -271 67
-327 40 -38 78 -50 158 -50 87 0 130 17 194 77 l49 46 7 -56 c3 -30 11 -57 16
-61 5 -3 75 -2 154 2 l145 7 0 73 0 73 -47 3 -48 3 0 308 0 307 -55 0 c-30 0
-106 -3 -167 -7 l-113 -6 0 -73 0 -73 48 -3 47 -3 3 -170 c3 -192 0 -204 -64
-241 -55 -32 -107 -32 -140 1 l-25 25 3 275 3 275 -90 -2 c-49 -1 -125 -4
-167 -5z"/>
</g>
</svg>
