<?xml version="1.0" encoding="UTF-8"?>
<!DOCTYPE svg PUBLIC "-//W3C//DTD SVG 1.1//EN" "http://www.w3.org/Graphics/SVG/1.1/DTD/svg11.dtd">
<svg xmlns="http://www.w3.org/2000/svg" version="1.1" width="2500px" height="949px" style="shape-rendering:geometricPrecision; text-rendering:geometricPrecision; image-rendering:optimizeQuality; fill-rule:evenodd; clip-rule:evenodd" xmlns:xlink="http://www.w3.org/1999/xlink">
<g><path style="opacity:0.992" fill="#005abb" d="M 787.5,-0.5 C 884.833,-0.5 982.167,-0.5 1079.5,-0.5C 1079.5,14.5 1079.5,29.5 1079.5,44.5C 1058.83,44.3334 1038.16,44.5 1017.5,45C 1012.79,46.1045 1009.63,48.9378 1008,53.5C 1006.85,77.619 1006.35,101.786 1006.5,126C 1006.67,148.833 1006.83,171.667 1007,194.5C 1009.69,227.183 1026.19,249.683 1056.5,262C 1080.77,270.493 1105.77,274.326 1131.5,273.5C 1131.67,249.498 1131.5,225.498 1131,201.5C 1130.27,191.77 1125.1,186.27 1115.5,185C 1096.5,184.5 1077.5,184.333 1058.5,184.5C 1058.5,169.5 1058.5,154.5 1058.5,139.5C 1155.17,139.5 1251.83,139.5 1348.5,139.5C 1348.67,112.831 1348.5,86.1646 1348,59.5C 1347.55,52.4342 1344.05,47.6008 1337.5,45C 1316.5,44.5 1295.5,44.3334 1274.5,44.5C 1274.5,29.5 1274.5,14.5 1274.5,-0.5C 1352.5,-0.5 1430.5,-0.5 1508.5,-0.5C 1508.5,14.5 1508.5,29.5 1508.5,44.5C 1487.83,44.3334 1467.16,44.5 1446.5,45C 1440.26,47.3004 1436.76,51.8004 1436,58.5C 1435.5,85.4979 1435.33,112.498 1435.5,139.5C 1498.83,139.333 1562.17,139.5 1625.5,140C 1673.47,148.473 1696.97,176.973 1696,225.5C 1689.33,263.833 1666.83,286.667 1628.5,294C 1673.88,302.884 1698.22,330.384 1701.5,376.5C 1697.6,422.905 1672.6,450.072 1626.5,458C 1436.83,458.5 1247.17,458.667 1057.5,458.5C 1057.5,443.5 1057.5,428.5 1057.5,413.5C 1077.5,413.667 1097.5,413.5 1117.5,413C 1125.9,410.713 1130.4,405.213 1131,396.5C 1131.5,370.502 1131.67,344.502 1131.5,318.5C 1077.32,319.383 1023.99,313.216 971.5,300C 941.042,291.86 914.208,277.36 891,256.5C 872.561,237.278 862.561,214.278 861,187.5C 860.667,143.833 860.333,100.167 860,56.5C 858.91,50.412 855.41,46.5787 849.5,45C 828.836,44.5 808.169,44.3334 787.5,44.5C 787.5,29.5 787.5,14.5 787.5,-0.5 Z M 1275.5,184.5 C 1299.83,184.5 1324.17,184.5 1348.5,184.5C 1349.05,198.266 1348.22,211.933 1346,225.5C 1337.91,251.59 1320.41,267.09 1293.5,272C 1287.55,273.072 1281.55,273.572 1275.5,273.5C 1275.5,243.833 1275.5,214.167 1275.5,184.5 Z M 1435.5,184.5 C 1470.5,184.333 1505.5,184.5 1540.5,185C 1563.85,190.356 1576.52,205.023 1578.5,229C 1576.31,251.175 1564.65,265.508 1543.5,272C 1495.86,273.632 1448.19,273.965 1400.5,273C 1427.72,249.854 1439.39,220.354 1435.5,184.5 Z M 1275.5,318.5 C 1363.17,318.333 1450.83,318.5 1538.5,319C 1569.77,328.029 1582.27,348.529 1576,380.5C 1569.15,399.02 1555.98,409.854 1536.5,413C 1449.5,413.5 1362.5,413.667 1275.5,413.5C 1275.5,381.833 1275.5,350.167 1275.5,318.5 Z"/></g>
<g><path style="opacity:0.978" fill="#005abb" d="M 2025.5,528.5 C 2039.03,527.699 2052.36,528.865 2065.5,532C 2067.42,532.36 2069.09,533.194 2070.5,534.5C 2063.72,543.059 2059.39,552.725 2057.5,563.5C 2051.2,562.513 2044.86,562.347 2038.5,563C 2032.38,565.451 2028.88,569.951 2028,576.5C 2027.5,582.491 2027.33,588.491 2027.5,594.5C 2042.17,594.5 2056.83,594.5 2071.5,594.5C 2069.36,576.66 2073.19,560.327 2083,545.5C 2094.92,532.968 2109.58,527.301 2127,528.5C 2135.28,528.275 2143.45,529.109 2151.5,531C 2155.54,531.899 2159.2,533.566 2162.5,536C 2159.37,545.731 2156.03,555.397 2152.5,565C 2149.15,564.783 2145.82,564.116 2142.5,563C 2135.29,561.887 2128.29,562.554 2121.5,565C 2118.19,567.778 2116.03,571.278 2115,575.5C 2113.81,581.778 2113.31,588.112 2113.5,594.5C 2124.17,594.5 2134.83,594.5 2145.5,594.5C 2145.5,605.167 2145.5,615.833 2145.5,626.5C 2134.83,626.5 2124.17,626.5 2113.5,626.5C 2113.5,650.833 2113.5,675.167 2113.5,699.5C 2120.92,699.975 2128.25,700.975 2135.5,702.5C 2136.5,711.475 2136.83,720.475 2136.5,729.5C 2108.83,729.5 2081.17,729.5 2053.5,729.5C 2053.17,720.475 2053.5,711.475 2054.5,702.5C 2060.05,700.85 2065.71,699.85 2071.5,699.5C 2071.5,674.167 2071.5,648.833 2071.5,623.5C 2056.83,623.5 2042.17,623.5 2027.5,623.5C 2027.5,648.833 2027.5,674.167 2027.5,699.5C 2033.25,700.036 2038.92,701.036 2044.5,702.5C 2045.5,711.475 2045.83,720.475 2045.5,729.5C 2018.83,729.5 1992.17,729.5 1965.5,729.5C 1965.33,720.494 1965.5,711.494 1966,702.5C 1972.03,700.89 1978.2,699.89 1984.5,699.5C 1984.5,675.167 1984.5,650.833 1984.5,626.5C 1978.17,626.5 1971.83,626.5 1965.5,626.5C 1965.5,615.833 1965.5,605.167 1965.5,594.5C 1971.83,594.5 1978.17,594.5 1984.5,594.5C 1982.82,578.604 1985.65,563.604 1993,549.5C 2001.04,538.071 2011.87,531.071 2025.5,528.5 Z"/></g>
<g><path style="opacity:0.962" fill="#005abb" d="M 389.5,530.5 C 411.221,529.718 421.054,540.051 419,561.5C 411.996,577.414 400.162,582.581 383.5,577C 369.702,568.32 366.202,556.487 373,541.5C 377.356,535.92 382.856,532.253 389.5,530.5 Z"/></g>
<g><path style="opacity:0.962" fill="#005abb" d="M 998.5,530.5 C 1013.4,529.19 1023.24,535.523 1028,549.5C 1028.23,572.267 1017.06,581.767 994.5,578C 979.19,570.415 974.69,558.582 981,542.5C 985.39,536.258 991.223,532.258 998.5,530.5 Z"/></g>
<g><path style="opacity:0.976" fill="#005abb" d="M 2315.5,530.5 C 2325.5,530.5 2335.5,530.5 2345.5,530.5C 2344.54,586.823 2344.21,643.156 2344.5,699.5C 2349.94,699.944 2355.27,700.944 2360.5,702.5C 2361.5,711.475 2361.83,720.475 2361.5,729.5C 2335.83,729.5 2310.17,729.5 2284.5,729.5C 2284.17,720.475 2284.5,711.475 2285.5,702.5C 2290.73,700.944 2296.06,699.944 2301.5,699.5C 2301.83,653.495 2301.5,607.495 2300.5,561.5C 2294.55,560.534 2288.55,559.868 2282.5,559.5C 2282.5,550.5 2282.5,541.5 2282.5,532.5C 2293.67,532.118 2304.67,531.452 2315.5,530.5 Z"/></g>
<g><path style="opacity:0.981" fill="#005abb" d="M -0.5,546.5 C 26.8333,546.5 54.1667,546.5 81.5,546.5C 81.5,555.5 81.5,564.5 81.5,573.5C 75.2526,574.891 68.9193,575.558 62.5,575.5C 62.0438,608.202 62.5438,640.869 64,673.5C 68.87,691.001 80.5367,699.335 99,698.5C 116.913,698.9 128.246,690.566 133,673.5C 134.456,640.869 134.956,608.202 134.5,575.5C 128.081,575.558 121.747,574.891 115.5,573.5C 115.5,564.5 115.5,555.5 115.5,546.5C 140.5,546.5 165.5,546.5 190.5,546.5C 190.5,555.5 190.5,564.5 190.5,573.5C 184.581,574.819 178.581,575.486 172.5,575.5C 172.667,605.502 172.5,635.502 172,665.5C 167.659,711.502 142.325,733.835 96,732.5C 74.7969,733.744 55.6303,728.244 38.5,716C 26.1462,703.788 19.3129,688.954 18,671.5C 17.5,639.502 17.3334,607.502 17.5,575.5C 11.4189,575.486 5.41888,574.819 -0.5,573.5C -0.5,564.5 -0.5,555.5 -0.5,546.5 Z"/></g>
<g><path style="opacity:0.98" fill="#005abb" d="M 1635.5,546.5 C 1670.83,546.333 1706.17,546.5 1741.5,547C 1781.63,551.776 1796.46,573.609 1786,612.5C 1779.81,623.36 1770.64,630.527 1758.5,634C 1792.82,644.14 1804.32,666.307 1793,700.5C 1786.74,712.219 1777.24,720.053 1764.5,724C 1756.01,726.565 1747.34,728.232 1738.5,729C 1704.17,729.5 1669.83,729.667 1635.5,729.5C 1635.17,720.475 1635.5,711.475 1636.5,702.5C 1643.07,700.918 1649.74,699.918 1656.5,699.5C 1656.5,658.167 1656.5,616.833 1656.5,575.5C 1649.41,575.659 1642.41,574.993 1635.5,573.5C 1635.5,564.5 1635.5,555.5 1635.5,546.5 Z M 1701.5,578.5 C 1710.84,578.334 1720.17,578.5 1729.5,579C 1743.73,583.967 1748.57,593.801 1744,608.5C 1740.07,616.555 1733.57,620.722 1724.5,621C 1716.84,621.5 1709.17,621.666 1701.5,621.5C 1701.5,607.167 1701.5,592.833 1701.5,578.5 Z M 1701.5,650.5 C 1709.51,650.334 1717.51,650.5 1725.5,651C 1748.87,653.218 1756.37,665.385 1748,687.5C 1743.03,693.736 1736.53,696.902 1728.5,697C 1719.51,697.5 1710.51,697.666 1701.5,697.5C 1701.5,681.833 1701.5,666.167 1701.5,650.5 Z"/></g>
<g><path style="opacity:0.974" fill="#005abb" d="M 1058.5,555.5 C 1072.5,555.5 1086.5,555.5 1100.5,555.5C 1100.5,568.5 1100.5,581.5 1100.5,594.5C 1111.5,594.5 1122.5,594.5 1133.5,594.5C 1133.5,605.167 1133.5,615.833 1133.5,626.5C 1122.5,626.5 1111.5,626.5 1100.5,626.5C 1100.03,648.233 1100.53,669.9 1102,691.5C 1102.83,695 1105,697.167 1108.5,698C 1112.5,698.667 1116.5,698.667 1120.5,698C 1123.15,696.885 1125.82,696.218 1128.5,696C 1132.43,705.207 1136.1,714.54 1139.5,724C 1136.18,726.996 1132.18,728.996 1127.5,730C 1113.89,732.838 1100.22,733.171 1086.5,731C 1070.64,727.482 1061.48,717.649 1059,701.5C 1058.5,676.502 1058.33,651.502 1058.5,626.5C 1051.5,626.5 1044.5,626.5 1037.5,626.5C 1037.5,615.833 1037.5,605.167 1037.5,594.5C 1044.5,594.5 1051.5,594.5 1058.5,594.5C 1058.5,581.5 1058.5,568.5 1058.5,555.5 Z"/></g>
<g><path style="opacity:0.977" fill="#005abb" d="M 1491.5,555.5 C 1505.5,555.5 1519.5,555.5 1533.5,555.5C 1533.5,568.5 1533.5,581.5 1533.5,594.5C 1544.5,594.5 1555.5,594.5 1566.5,594.5C 1566.5,605.167 1566.5,615.833 1566.5,626.5C 1555.5,626.5 1544.5,626.5 1533.5,626.5C 1533.04,648.22 1533.54,669.887 1535,691.5C 1536.5,694.333 1538.67,696.5 1541.5,698C 1545.5,698.667 1549.5,698.667 1553.5,698C 1557.19,696.818 1560.85,695.652 1564.5,694.5C 1566.69,703.236 1569.19,711.903 1572,720.5C 1572.74,722.441 1572.58,724.274 1571.5,726C 1554.68,732.572 1537.34,734.239 1519.5,731C 1503.7,726.862 1494.53,716.695 1492,700.5C 1491.5,675.836 1491.33,651.169 1491.5,626.5C 1484.5,626.5 1477.5,626.5 1470.5,626.5C 1470.5,615.833 1470.5,605.167 1470.5,594.5C 1477.5,594.5 1484.5,594.5 1491.5,594.5C 1491.5,581.5 1491.5,568.5 1491.5,555.5 Z"/></g>
<g><path style="opacity:0.983" fill="#005abb" d="M 275.5,591.5 C 290.586,588.98 304.086,592.313 316,601.5C 321.486,607.809 324.82,615.142 326,623.5C 326.5,648.831 326.667,674.164 326.5,699.5C 332.252,700.036 337.919,701.036 343.5,702.5C 344.498,711.475 344.832,720.475 344.5,729.5C 324.5,729.5 304.5,729.5 284.5,729.5C 284.667,699.498 284.5,669.498 284,639.5C 283.174,630.34 278.174,625.673 269,625.5C 259.07,626.744 251.07,631.411 245,639.5C 244.5,659.497 244.333,679.497 244.5,699.5C 249.903,700.129 255.236,701.129 260.5,702.5C 261.498,711.475 261.832,720.475 261.5,729.5C 235.167,729.5 208.833,729.5 182.5,729.5C 182.168,720.475 182.502,711.475 183.5,702.5C 189.735,700.929 196.069,699.929 202.5,699.5C 202.5,674.167 202.5,648.833 202.5,623.5C 195.877,622.62 189.211,622.287 182.5,622.5C 182.5,613.167 182.5,603.833 182.5,594.5C 203.157,593.577 223.824,592.911 244.5,592.5C 244.334,598.509 244.501,604.509 245,610.5C 252.758,600.231 262.925,593.897 275.5,591.5 Z"/></g>
<g><path style="opacity:0.978" fill="#005abb" d="M 636.5,591.5 C 683.69,587.193 707.69,608.693 708.5,656C 708.309,661.516 707.976,667.016 707.5,672.5C 679.833,672.5 652.167,672.5 624.5,672.5C 626.652,692.483 637.819,702.483 658,702.5C 669.518,702.454 680.185,699.454 690,693.5C 694.627,701.921 699.127,710.421 703.5,719C 694.061,725.149 683.727,729.149 672.5,731C 656.226,733.37 640.059,732.87 624,729.5C 592.949,718.949 577.782,697.115 578.5,664C 578.288,623.819 597.622,599.652 636.5,591.5 Z M 641.5,619.5 C 653.488,617.404 661.321,622.071 665,633.5C 666.195,637.751 666.695,642.085 666.5,646.5C 652.167,646.5 637.833,646.5 623.5,646.5C 623.82,633.483 629.82,624.483 641.5,619.5 Z"/></g>
<g><path style="opacity:0.976" fill="#005abb" d="M 805.5,591.5 C 814,590.934 822.333,591.767 830.5,594C 831.516,594.519 832.182,595.353 832.5,596.5C 829.339,608.143 826.339,619.81 823.5,631.5C 806.269,624.408 792.102,628.408 781,643.5C 779.526,662.073 779.026,680.74 779.5,699.5C 786.605,699.845 793.605,700.845 800.5,702.5C 801.498,711.475 801.832,720.475 801.5,729.5C 773.5,729.5 745.5,729.5 717.5,729.5C 717.168,720.475 717.502,711.475 718.5,702.5C 724.735,700.929 731.069,699.929 737.5,699.5C 737.5,674.167 737.5,648.833 737.5,623.5C 730.877,622.62 724.211,622.287 717.5,622.5C 717.5,613.167 717.5,603.833 717.5,594.5C 738.49,593.552 759.49,592.885 780.5,592.5C 779.693,599.154 779.526,605.82 780,612.5C 786.026,602.29 794.526,595.29 805.5,591.5 Z"/></g>
<g><path style="opacity:0.972" fill="#005abb" d="M 880.5,591.5 C 902.761,589.658 924.428,592.324 945.5,599.5C 946.499,612.149 946.832,624.816 946.5,637.5C 936.478,637.832 926.478,637.499 916.5,636.5C 915.97,631.869 914.97,627.369 913.5,623C 902.334,619.389 891.334,619.723 880.5,624C 874.956,629.734 875.623,634.734 882.5,639C 893.342,642.503 904.342,645.503 915.5,648C 946.593,656.35 957.093,675.85 947,706.5C 942.05,716.115 934.55,722.949 924.5,727C 913.052,731.269 901.219,733.102 889,732.5C 871.516,733.003 854.683,730.003 838.5,723.5C 837.501,710.851 837.168,698.184 837.5,685.5C 847.5,685.5 857.5,685.5 867.5,685.5C 868.065,690.149 868.565,694.816 869,699.5C 880.355,702.729 891.855,703.229 903.5,701C 914.017,695.049 914.017,689.049 903.5,683C 890.833,679.333 878.167,675.667 865.5,672C 846.077,663.993 837.244,649.493 839,628.5C 840.684,613.82 848.184,603.32 861.5,597C 867.817,594.675 874.15,592.842 880.5,591.5 Z"/></g>
<g><path style="opacity:0.971" fill="#005abb" d="M 1388.5,591.5 C 1398.51,591.334 1408.51,591.5 1418.5,592C 1443.68,594.517 1457.52,608.35 1460,633.5C 1460.5,656.164 1460.67,678.831 1460.5,701.5C 1466.17,701.5 1471.83,701.5 1477.5,701.5C 1477.5,710.833 1477.5,720.167 1477.5,729.5C 1459.17,730.81 1440.84,731.143 1422.5,730.5C 1421.35,725.905 1420.51,721.238 1420,716.5C 1407.4,730.033 1391.9,735.2 1373.5,732C 1353.07,727.321 1342.4,714.488 1341.5,693.5C 1341.84,677.981 1348.5,666.147 1361.5,658C 1379.09,649.123 1397.75,645.289 1417.5,646.5C 1417.67,642.154 1417.5,637.821 1417,633.5C 1414.87,627.707 1410.7,624.54 1404.5,624C 1389.41,622.69 1375.74,626.523 1363.5,635.5C 1357.77,628.384 1352.27,621.051 1347,613.5C 1346.22,612.056 1346.39,610.723 1347.5,609.5C 1359.71,599.993 1373.38,593.993 1388.5,591.5 Z M 1411.5,670.5 C 1413.5,670.5 1415.5,670.5 1417.5,670.5C 1423.85,690.253 1417.02,701.253 1397,703.5C 1383.27,701.035 1379.27,693.369 1385,680.5C 1387.26,677.567 1390.1,675.4 1393.5,674C 1399.55,672.374 1405.55,671.208 1411.5,670.5 Z"/></g>
<g><path style="opacity:0.975" fill="#005abb" d="M 2194.5,591.5 C 2207.94,590.923 2221.27,591.756 2234.5,594C 2253.1,599.606 2263.27,612.106 2265,631.5C 2265.5,654.831 2265.67,678.164 2265.5,701.5C 2269.83,701.5 2274.17,701.5 2278.5,701.5C 2278.5,710.833 2278.5,720.167 2278.5,729.5C 2261.52,730.539 2244.52,731.206 2227.5,731.5C 2226.81,726.489 2225.97,721.489 2225,716.5C 2209,732.872 2190.17,737.038 2168.5,729C 2154.09,721.864 2146.76,710.198 2146.5,694C 2146.66,678.337 2153.33,666.337 2166.5,658C 2184.44,649.113 2203.44,645.279 2223.5,646.5C 2223.93,640.166 2222.77,634.166 2220,628.5C 2211.1,623.296 2201.6,622.13 2191.5,625C 2183.4,627.303 2175.9,630.803 2169,635.5C 2167.74,635.241 2166.74,634.574 2166,633.5C 2161.91,626.993 2157.58,620.66 2153,614.5C 2152.02,613.241 2151.68,611.908 2152,610.5C 2164.36,599.997 2178.52,593.663 2194.5,591.5 Z M 2216.5,670.5 C 2218.83,670.5 2221.17,670.5 2223.5,670.5C 2223.67,678.174 2223.5,685.841 2223,693.5C 2214.72,702.348 2204.89,704.848 2193.5,701C 2187.39,696.084 2185.89,689.918 2189,682.5C 2190.83,679.333 2193.33,676.833 2196.5,675C 2203.1,672.524 2209.76,671.024 2216.5,670.5 Z"/></g>
<g><path style="opacity:0.976" fill="#005abb" d="M 2415.5,591.5 C 2442.14,587.545 2464.64,595.212 2483,614.5C 2498.76,638.592 2501.76,664.259 2492,691.5C 2482.19,714.304 2465.02,727.804 2440.5,732C 2417.69,735.549 2397.36,730.216 2379.5,716C 2362.3,696.707 2355.8,674.207 2360,648.5C 2365.61,616.721 2384.11,597.721 2415.5,591.5 Z M 2421.5,622.5 C 2438.9,621.053 2448.73,629.053 2451,646.5C 2453.17,658.906 2452.84,671.239 2450,683.5C 2446.54,696.65 2438.04,702.484 2424.5,701C 2416.53,699.034 2411.03,694.201 2408,686.5C 2406.38,682.653 2405.38,678.653 2405,674.5C 2404.12,663.45 2404.45,652.45 2406,641.5C 2407.91,632.277 2413.07,625.943 2421.5,622.5 Z"/></g>
<g><path style="opacity:0.977" fill="#005abb" d="M 392.5,592.5 C 400.833,592.5 409.167,592.5 417.5,592.5C 416.584,628.156 416.251,663.823 416.5,699.5C 422.252,700.036 427.919,701.036 433.5,702.5C 434.498,711.475 434.832,720.475 434.5,729.5C 407.5,729.5 380.5,729.5 353.5,729.5C 353.168,720.475 353.502,711.475 354.5,702.5C 360.735,700.929 367.069,699.929 373.5,699.5C 373.5,674.167 373.5,648.833 373.5,623.5C 366.877,622.62 360.211,622.287 353.5,622.5C 353.5,613.167 353.5,603.833 353.5,594.5C 366.67,594.126 379.67,593.459 392.5,592.5 Z"/></g>
<g><path style="opacity:0.981" fill="#005abb" d="M 1001.5,592.5 C 1009.83,592.5 1018.17,592.5 1026.5,592.5C 1024.66,628.128 1024,663.795 1024.5,699.5C 1030.27,699.93 1035.94,700.93 1041.5,702.5C 1042.5,711.475 1042.83,720.475 1042.5,729.5C 1015.83,729.5 989.167,729.5 962.5,729.5C 962.168,720.475 962.502,711.475 963.5,702.5C 969.382,700.848 975.382,699.848 981.5,699.5C 981.5,674.167 981.5,648.833 981.5,623.5C 975.211,622.628 968.878,622.295 962.5,622.5C 962.5,613.167 962.5,603.833 962.5,594.5C 975.67,594.126 988.67,593.459 1001.5,592.5 Z"/></g>
<g><path style="opacity:0.972" fill="#005abb" d="M 1835.5,592.5 C 1843.53,592.169 1851.53,592.502 1859.5,593.5C 1858.71,599.115 1858.21,604.782 1858,610.5C 1857.33,635.5 1857.33,660.5 1858,685.5C 1859.19,693.857 1864.02,698.19 1872.5,698.5C 1882.13,697.433 1889.97,693.1 1896,685.5C 1896.5,664.836 1896.67,644.169 1896.5,623.5C 1890.55,622.637 1884.55,622.303 1878.5,622.5C 1878.5,613.167 1878.5,603.833 1878.5,594.5C 1899.16,593.526 1919.82,592.859 1940.5,592.5C 1939.57,628.822 1939.24,665.156 1939.5,701.5C 1945.5,701.5 1951.5,701.5 1957.5,701.5C 1957.5,710.833 1957.5,720.167 1957.5,729.5C 1938.85,730.666 1920.18,731.166 1901.5,731C 1899.87,724.625 1898.71,718.125 1898,711.5C 1882.12,731.123 1861.95,737.29 1837.5,730C 1825.67,724.527 1818.51,715.361 1816,702.5C 1814.58,676.197 1814.08,649.864 1814.5,623.5C 1808.88,622.646 1803.21,622.313 1797.5,622.5C 1797.5,613.167 1797.5,603.833 1797.5,594.5C 1810.34,594.137 1823,593.47 1835.5,592.5 Z"/></g>
<g><path style="opacity:0.976" fill="#005abb" d="M 426.5,594.5 C 449.833,594.5 473.167,594.5 496.5,594.5C 496.666,603.506 496.5,612.506 496,621.5C 492.21,622.551 488.377,623.551 484.5,624.5C 492.163,644.99 499.33,665.657 506,686.5C 512.67,665.657 519.837,644.99 527.5,624.5C 523.268,623.637 519.101,622.637 515,621.5C 514.5,612.506 514.334,603.506 514.5,594.5C 536.5,594.5 558.5,594.5 580.5,594.5C 580.666,603.506 580.5,612.506 580,621.5C 575.035,622.513 570.201,623.847 565.5,625.5C 551.26,659.974 537.593,694.641 524.5,729.5C 509.921,729.824 495.421,729.49 481,728.5C 467.402,693.873 453.902,659.206 440.5,624.5C 436.139,623.592 431.806,622.592 427.5,621.5C 426.502,612.525 426.168,603.525 426.5,594.5 Z"/></g>
<g><path style="opacity:0.974" fill="#005abb" d="M 1140.5,594.5 C 1163.83,594.5 1187.17,594.5 1210.5,594.5C 1210.83,603.525 1210.5,612.525 1209.5,621.5C 1205.58,622.651 1201.58,623.485 1197.5,624C 1205.52,644.234 1212.86,664.734 1219.5,685.5C 1226.54,664.875 1233.87,644.375 1241.5,624C 1236.89,623.534 1232.39,622.7 1228,621.5C 1227.5,612.506 1227.33,603.506 1227.5,594.5C 1249.83,594.5 1272.17,594.5 1294.5,594.5C 1294.83,603.525 1294.5,612.525 1293.5,621.5C 1289.26,622.749 1284.93,623.583 1280.5,624C 1262.69,665.796 1245.53,707.963 1229,750.5C 1223.84,762.987 1216.34,773.82 1206.5,783C 1194.12,791.511 1180.46,794.844 1165.5,793C 1160.88,782.303 1156.54,771.47 1152.5,760.5C 1159.16,759.641 1165.83,758.808 1172.5,758C 1177.86,756.568 1182.36,753.734 1186,749.5C 1189.66,743.175 1192.5,736.509 1194.5,729.5C 1180.96,694.214 1167.63,658.881 1154.5,623.5C 1149.84,623.689 1145.34,623.022 1141,621.5C 1140.5,612.506 1140.33,603.506 1140.5,594.5 Z"/></g>
<g><path style="opacity:0.958" fill="#656665" d="M 1608.5,807.5 C 1613.84,807.334 1619.18,807.501 1624.5,808C 1627.01,808.115 1629.01,809.115 1630.5,811C 1629.58,815.418 1628.08,819.584 1626,823.5C 1615.35,818.432 1608.35,821.432 1605,832.5C 1604.5,836.152 1604.33,839.818 1604.5,843.5C 1610.17,843.5 1615.83,843.5 1621.5,843.5C 1621.5,847.5 1621.5,851.5 1621.5,855.5C 1615.83,855.5 1610.17,855.5 1604.5,855.5C 1604.5,875.167 1604.5,894.833 1604.5,914.5C 1599.17,914.5 1593.83,914.5 1588.5,914.5C 1588.5,894.833 1588.5,875.167 1588.5,855.5C 1584.83,855.5 1581.17,855.5 1577.5,855.5C 1577.5,851.5 1577.5,847.5 1577.5,843.5C 1581.17,843.5 1584.83,843.5 1588.5,843.5C 1586.22,831.09 1589.55,820.59 1598.5,812C 1601.82,810.17 1605.15,808.67 1608.5,807.5 Z"/></g>
<g><path style="opacity:0.962" fill="#656665" d="M 363.5,809.5 C 368.833,809.5 374.167,809.5 379.5,809.5C 379.333,823.171 379.5,836.837 380,850.5C 389.777,841.308 400.943,839.141 413.5,844C 417.039,845.907 419.539,848.74 421,852.5C 422.453,873.113 422.953,893.78 422.5,914.5C 417.167,914.5 411.833,914.5 406.5,914.5C 406.667,897.163 406.5,879.83 406,862.5C 404.678,857.679 401.511,855.346 396.5,855.5C 389.873,856.9 384.373,860.233 380,865.5C 379.5,881.83 379.333,898.163 379.5,914.5C 374.167,914.5 368.833,914.5 363.5,914.5C 363.5,879.5 363.5,844.5 363.5,809.5 Z"/></g>
<g><path style="opacity:0.914" fill="#656665" d="M 2172.5,809.5 C 2178.17,809.5 2183.83,809.5 2189.5,809.5C 2189.33,830.169 2189.5,850.836 2190,871.5C 2197.83,862.333 2205.67,853.167 2213.5,844C 2219.83,843.333 2226.17,843.333 2232.5,844C 2223.5,854.333 2214.5,864.667 2205.5,875C 2215.03,887.693 2224.36,900.527 2233.5,913.5C 2227.19,914.664 2220.86,914.831 2214.5,914C 2206.21,902.588 2198.04,891.088 2190,879.5C 2189.5,891.162 2189.33,902.829 2189.5,914.5C 2183.83,914.5 2178.17,914.5 2172.5,914.5C 2172.5,879.5 2172.5,844.5 2172.5,809.5 Z"/></g>
<g><path style="opacity:0.907" fill="#656665" d="M 1052.5,812.5 C 1061.83,812 1066.33,816.333 1066,825.5C 1062.71,832.936 1057.21,835.103 1049.5,832C 1045.74,828.257 1044.57,823.757 1046,818.5C 1047.49,815.686 1049.66,813.686 1052.5,812.5 Z"/></g>
<g><path style="opacity:0.909" fill="#656665" d="M 1324.5,812.5 C 1334.43,812.025 1338.6,816.691 1337,826.5C 1332.67,834.051 1326.84,835.385 1319.5,830.5C 1314.39,822.535 1316.06,816.535 1324.5,812.5 Z"/></g>
<g><path style="opacity:0.94" fill="#656665" d="M 565.5,815.5 C 577.914,813.928 589.581,816.094 600.5,822C 601.022,822.561 601.355,823.228 601.5,824C 599.617,828.273 597.117,832.106 594,835.5C 586.862,830.757 579.029,828.924 570.5,830C 561.566,833.146 559.066,838.979 563,847.5C 564.167,848.667 565.333,849.833 566.5,851C 575.657,855.412 584.657,860.078 593.5,865C 605.4,876.14 607.567,888.973 600,903.5C 594.957,909.772 588.457,913.606 580.5,915C 570.239,916.322 560.239,915.322 550.5,912C 547.057,910.382 544.057,908.215 541.5,905.5C 543.774,901.228 546.441,897.228 549.5,893.5C 559.573,902.096 570.573,903.596 582.5,898C 588.603,892.277 588.936,886.277 583.5,880C 573.5,874.333 563.5,868.667 553.5,863C 545.021,854.887 542.188,845.054 545,833.5C 548.713,823.901 555.546,817.901 565.5,815.5 Z"/></g>
<g><path style="opacity:0.951" fill="#656665" d="M 284.5,816.5 C 308.167,816.5 331.833,816.5 355.5,816.5C 355.5,821.5 355.5,826.5 355.5,831.5C 346.5,831.5 337.5,831.5 328.5,831.5C 328.5,859.167 328.5,886.833 328.5,914.5C 322.833,914.5 317.167,914.5 311.5,914.5C 311.5,886.833 311.5,859.167 311.5,831.5C 302.5,831.5 293.5,831.5 284.5,831.5C 284.5,826.5 284.5,821.5 284.5,816.5 Z"/></g>
<g><path style="opacity:0.953" fill="#656665" d="M 888.5,816.5 C 894.167,816.5 899.833,816.5 905.5,816.5C 905.063,839.872 905.563,863.205 907,886.5C 910.073,896.879 917.073,901.879 928,901.5C 939.708,901.455 947.041,895.789 950,884.5C 950.5,861.836 950.667,839.169 950.5,816.5C 955.833,816.5 961.167,816.5 966.5,816.5C 966.667,839.836 966.5,863.169 966,886.5C 961.756,907.066 949.089,916.733 928,915.5C 906.589,916.975 893.589,907.309 889,886.5C 888.5,863.169 888.333,839.836 888.5,816.5 Z"/></g>
<g><path style="opacity:0.952" fill="#656665" d="M 1674.5,816.5 C 1680.54,816.171 1686.54,816.504 1692.5,817.5C 1708.53,840.363 1724.36,863.363 1740,886.5C 1740.5,863.169 1740.67,839.836 1740.5,816.5C 1745.5,816.5 1750.5,816.5 1755.5,816.5C 1755.5,849.167 1755.5,881.833 1755.5,914.5C 1750.13,914.828 1744.79,914.495 1739.5,913.5C 1723.14,890.304 1706.97,866.971 1691,843.5C 1690.5,867.164 1690.33,890.831 1690.5,914.5C 1685.17,914.5 1679.83,914.5 1674.5,914.5C 1674.5,881.833 1674.5,849.167 1674.5,816.5 Z"/></g>
<g><path style="opacity:0.935" fill="#656665" d="M 1974.5,816.5 C 1981.09,816.189 1987.59,816.522 1994,817.5C 2001.08,831.99 2008.41,846.323 2016,860.5C 2023.08,846.01 2030.41,831.677 2038,817.5C 2043.78,816.193 2049.61,816.193 2055.5,817.5C 2044.75,837.342 2034.25,857.342 2024,877.5C 2023.5,889.829 2023.33,902.162 2023.5,914.5C 2017.83,914.5 2012.17,914.5 2006.5,914.5C 2006.67,901.829 2006.5,889.162 2006,876.5C 1995.22,856.604 1984.72,836.604 1974.5,816.5 Z"/></g>
<g><path style="opacity:0.966" fill="#656665" d="M 617.5,823.5 C 622.833,823.5 628.167,823.5 633.5,823.5C 633.5,830.167 633.5,836.833 633.5,843.5C 639.167,843.5 644.833,843.5 650.5,843.5C 650.5,847.5 650.5,851.5 650.5,855.5C 644.833,855.5 639.167,855.5 633.5,855.5C 633.05,870.239 633.55,884.905 635,899.5C 636.684,901.066 638.684,902.066 641,902.5C 644.258,901.562 647.425,900.729 650.5,900C 651.928,903.45 653.262,906.95 654.5,910.5C 653.811,912.353 652.478,913.519 650.5,914C 641.184,916.571 632.184,915.904 623.5,912C 621.383,910.269 619.883,908.102 619,905.5C 617.544,888.903 617.044,872.237 617.5,855.5C 613.833,855.5 610.167,855.5 606.5,855.5C 606.5,851.5 606.5,847.5 606.5,843.5C 610.167,843.5 613.833,843.5 617.5,843.5C 617.5,836.833 617.5,830.167 617.5,823.5 Z"/></g>
<g><path style="opacity:0.969" fill="#656665" d="M 732.5,823.5 C 737.833,823.5 743.167,823.5 748.5,823.5C 748.5,830.167 748.5,836.833 748.5,843.5C 754.167,843.5 759.833,843.5 765.5,843.5C 765.5,847.5 765.5,851.5 765.5,855.5C 759.833,855.5 754.167,855.5 748.5,855.5C 748.05,870.239 748.55,884.905 750,899.5C 751.47,901.152 753.303,902.152 755.5,902.5C 758.568,901.699 761.568,900.699 764.5,899.5C 766.839,903.01 768.506,906.843 769.5,911C 764.706,914.704 759.206,916.204 753,915.5C 744.079,916.873 737.746,913.54 734,905.5C 732.544,888.903 732.044,872.237 732.5,855.5C 728.5,855.5 724.5,855.5 720.5,855.5C 720.5,851.5 720.5,847.5 720.5,843.5C 724.5,843.5 728.5,843.5 732.5,843.5C 732.5,836.833 732.5,830.167 732.5,823.5 Z"/></g>
<g><path style="opacity:0.933" fill="#656665" d="M 1354.5,823.5 C 1360.17,823.5 1365.83,823.5 1371.5,823.5C 1371.5,830.167 1371.5,836.833 1371.5,843.5C 1377.17,843.5 1382.83,843.5 1388.5,843.5C 1388.5,847.5 1388.5,851.5 1388.5,855.5C 1382.83,855.5 1377.17,855.5 1371.5,855.5C 1371.33,869.837 1371.5,884.171 1372,898.5C 1373.5,900.584 1375.5,901.917 1378,902.5C 1381.55,901.571 1385.05,900.571 1388.5,899.5C 1389.62,903.539 1390.96,907.539 1392.5,911.5C 1390.07,913.145 1387.41,914.311 1384.5,915C 1376.95,916.126 1369.62,915.46 1362.5,913C 1357.75,909.333 1355.25,904.499 1355,898.5C 1354.5,884.171 1354.33,869.837 1354.5,855.5C 1350.83,855.5 1347.17,855.5 1343.5,855.5C 1343.5,851.5 1343.5,847.5 1343.5,843.5C 1347.17,843.5 1350.83,843.5 1354.5,843.5C 1354.5,836.833 1354.5,830.167 1354.5,823.5 Z"/></g>
<g><path style="opacity:0.938" fill="#656665" d="M 457.5,841.5 C 475.019,838.995 486.519,845.995 492,862.5C 493.257,868.769 493.757,875.102 493.5,881.5C 478.167,881.5 462.833,881.5 447.5,881.5C 448.695,898.444 457.695,905.277 474.5,902C 478.281,901.076 481.781,899.576 485,897.5C 487.659,900.808 489.825,904.475 491.5,908.5C 486.987,911.756 481.987,913.922 476.5,915C 442.225,918.39 427.058,902.89 431,868.5C 434.695,854.306 443.528,845.306 457.5,841.5 Z M 458.5,854.5 C 469.353,853.018 475.686,857.685 477.5,868.5C 467.517,869.666 457.517,869.832 447.5,869C 449.139,862.524 452.806,857.691 458.5,854.5 Z"/></g>
<g><path style="opacity:0.938" fill="#656665" d="M 681.5,841.5 C 689.337,840.968 697.003,841.801 704.5,844C 709.06,846.227 712.226,849.727 714,854.5C 715.067,874.478 716.234,894.478 717.5,914.5C 712.167,914.5 706.833,914.5 701.5,914.5C 701.162,912.146 700.662,909.813 700,907.5C 691.56,915.462 681.727,917.629 670.5,914C 663.032,910.408 659.365,904.408 659.5,896C 659.56,887.543 663.227,881.21 670.5,877C 679.624,872.409 689.291,870.575 699.5,871.5C 700.835,858.008 694.835,852.841 681.5,856C 677.131,857.267 673.297,859.433 670,862.5C 667.167,859 664.333,855.5 661.5,852C 667.276,846.614 673.943,843.114 681.5,841.5 Z M 688.5,882.5 C 692.167,882.5 695.833,882.5 699.5,882.5C 701.918,894.754 696.918,901.754 684.5,903.5C 674.427,899.767 673.094,893.934 680.5,886C 683.158,884.522 685.825,883.355 688.5,882.5 Z"/></g>
<g><path style="opacity:0.94" fill="#656665" d="M 797.5,841.5 C 817.211,838.92 829.044,847.253 833,866.5C 833.499,871.489 833.666,876.489 833.5,881.5C 818.167,881.5 802.833,881.5 787.5,881.5C 789.158,897.991 798.158,904.824 814.5,902C 818.368,900.989 822.034,899.489 825.5,897.5C 827.754,901.007 829.754,904.673 831.5,908.5C 826.987,911.756 821.987,913.922 816.5,915C 782.731,918.564 767.564,903.398 771,869.5C 774.274,854.73 783.107,845.397 797.5,841.5 Z M 798.5,854.5 C 810.38,852.596 816.713,857.596 817.5,869.5C 807.833,869.5 798.167,869.5 788.5,869.5C 789.116,862.58 792.449,857.58 798.5,854.5 Z"/></g>
<g><path style="opacity:0.922" fill="#656665" d="M 1008.5,841.5 C 1024.13,838.873 1033.3,845.207 1036,860.5C 1036.5,878.497 1036.67,896.497 1036.5,914.5C 1030.83,914.5 1025.17,914.5 1019.5,914.5C 1019.67,896.83 1019.5,879.164 1019,861.5C 1015.22,855.61 1010.05,854.11 1003.5,857C 999.592,859.032 996.425,861.866 994,865.5C 993.5,881.83 993.333,898.163 993.5,914.5C 987.833,914.5 982.167,914.5 976.5,914.5C 976.5,890.833 976.5,867.167 976.5,843.5C 981.833,843.5 987.167,843.5 992.5,843.5C 992.336,846.187 992.503,848.854 993,851.5C 997.308,846.665 1002.48,843.331 1008.5,841.5 Z"/></g>
<g><path style="opacity:0.937" fill="#656665" d="M 1166.5,841.5 C 1184.4,838.688 1196.24,845.688 1202,862.5C 1203.19,868.778 1203.69,875.112 1203.5,881.5C 1188.17,881.5 1172.83,881.5 1157.5,881.5C 1158.68,898.439 1167.68,905.272 1184.5,902C 1188.12,900.686 1191.62,899.186 1195,897.5C 1197.66,900.808 1199.83,904.475 1201.5,908.5C 1196.99,911.756 1191.99,913.922 1186.5,915C 1171.02,918.613 1157.85,914.78 1147,903.5C 1140.4,891.182 1138.73,878.182 1142,864.5C 1146.07,852.395 1154.24,844.728 1166.5,841.5 Z M 1168.5,854.5 C 1179.58,853.075 1185.91,857.909 1187.5,869C 1177.5,869.667 1167.5,869.667 1157.5,869C 1158.77,862.247 1162.43,857.414 1168.5,854.5 Z"/></g>
<g><path style="opacity:0.957" fill="#656665" d="M 1242.5,841.5 C 1247.21,841.353 1251.88,841.686 1256.5,842.5C 1255.71,847.497 1254.38,852.33 1252.5,857C 1241.99,854.84 1234.49,858.674 1230,868.5C 1229.5,883.83 1229.33,899.163 1229.5,914.5C 1224.17,914.5 1218.83,914.5 1213.5,914.5C 1213.5,890.833 1213.5,867.167 1213.5,843.5C 1218.83,843.5 1224.17,843.5 1229.5,843.5C 1229.34,846.187 1229.5,848.854 1230,851.5C 1233.19,846.837 1237.36,843.503 1242.5,841.5 Z"/></g>
<g><path style="opacity:0.928" fill="#656665" d="M 1278.5,841.5 C 1284.9,841.243 1291.23,841.743 1297.5,843C 1301.32,844.074 1304.65,845.907 1307.5,848.5C 1305.4,852.372 1303.07,856.039 1300.5,859.5C 1293.76,854.584 1286.43,853.418 1278.5,856C 1274.5,859.667 1274.5,863.333 1278.5,867C 1286.37,870.288 1294.04,873.955 1301.5,878C 1308.78,883.836 1311.28,891.336 1309,900.5C 1307.26,907.237 1303.1,911.737 1296.5,914C 1287.17,917.333 1277.83,917.333 1268.5,914C 1264.68,912.926 1261.35,911.093 1258.5,908.5C 1260.17,904.475 1262.34,900.808 1265,897.5C 1270.28,900.484 1275.95,902.484 1282,903.5C 1287.96,903.448 1292.12,900.781 1294.5,895.5C 1293.75,893.247 1292.41,891.413 1290.5,890C 1282.89,886.861 1275.55,883.194 1268.5,879C 1260.08,871.255 1258.25,862.088 1263,851.5C 1267.24,846.479 1272.41,843.146 1278.5,841.5 Z"/></g>
<g><path style="opacity:0.939" fill="#656665" d="M 1533.5,841.5 C 1554.16,839.236 1567.66,847.903 1574,867.5C 1577.67,883.475 1573.84,897.309 1562.5,909C 1553.05,915.146 1542.71,917.146 1531.5,915C 1517.82,911.318 1509.65,902.485 1507,888.5C 1505.44,877.757 1506.77,867.424 1511,857.5C 1516.21,848.823 1523.71,843.49 1533.5,841.5 Z M 1535.5,854.5 C 1547.52,853.418 1554.69,858.752 1557,870.5C 1557.84,877.567 1557.51,884.567 1556,891.5C 1550.75,902.474 1542.58,905.307 1531.5,900C 1527.29,896.083 1524.79,891.25 1524,885.5C 1522.99,878 1523.66,870.667 1526,863.5C 1528.41,859.592 1531.57,856.592 1535.5,854.5 Z"/></g>
<g><path style="opacity:0.934" fill="#656665" d="M 1791.5,841.5 C 1818.5,840.339 1830.67,853.339 1828,880.5C 1812.91,881.491 1797.74,881.824 1782.5,881.5C 1783.42,898.128 1792.08,904.962 1808.5,902C 1812.38,901.059 1816.05,899.559 1819.5,897.5C 1822.44,900.533 1824.77,904.033 1826.5,908C 1821.91,911.962 1816.57,914.296 1810.5,915C 1782,919.263 1766.66,907.096 1764.5,878.5C 1764.87,859.511 1773.87,847.178 1791.5,841.5 Z M 1793.5,854.5 C 1804.99,852.99 1810.99,857.99 1811.5,869.5C 1801.83,869.666 1792.16,869.5 1782.5,869C 1783.76,862.255 1787.42,857.421 1793.5,854.5 Z"/></g>
<g><path style="opacity:0.938" fill="#656665" d="M 2069.5,841.5 C 2095.86,839.856 2110.19,852.189 2112.5,878.5C 2110.49,905.999 2095.82,918.165 2068.5,915C 2054.82,911.318 2046.65,902.485 2044,888.5C 2040.33,871.304 2045.16,857.138 2058.5,846C 2062.16,844.178 2065.82,842.678 2069.5,841.5 Z M 2072.5,854.5 C 2084.51,854.003 2091.67,859.67 2094,871.5C 2095.01,879 2094.34,886.333 2092,893.5C 2086.18,902.771 2078.34,904.938 2068.5,900C 2064.57,896.312 2062.07,891.812 2061,886.5C 2060.16,879.433 2060.49,872.433 2062,865.5C 2063.73,859.973 2067.23,856.306 2072.5,854.5 Z"/></g>
<g><path style="opacity:0.957" fill="#656665" d="M 2150.5,841.5 C 2155.21,841.353 2159.88,841.686 2164.5,842.5C 2163.71,847.497 2162.38,852.33 2160.5,857C 2149.99,854.84 2142.49,858.674 2138,868.5C 2137.5,883.83 2137.33,899.163 2137.5,914.5C 2132.17,914.5 2126.83,914.5 2121.5,914.5C 2121.5,890.833 2121.5,867.167 2121.5,843.5C 2126.83,843.5 2132.17,843.5 2137.5,843.5C 2137.34,846.187 2137.5,848.854 2138,851.5C 2141.19,846.837 2145.36,843.503 2150.5,841.5 Z"/></g>
<g><path style="opacity:0.974" fill="#656665" d="M 1047.5,843.5 C 1052.83,843.5 1058.17,843.5 1063.5,843.5C 1063.5,867.167 1063.5,890.833 1063.5,914.5C 1058.17,914.5 1052.83,914.5 1047.5,914.5C 1047.5,890.833 1047.5,867.167 1047.5,843.5 Z"/></g>
<g><path style="opacity:0.939" fill="#656665" d="M 1071.5,843.5 C 1077.5,843.5 1083.5,843.5 1089.5,843.5C 1094.23,859.696 1099.57,875.696 1105.5,891.5C 1111.43,875.696 1116.77,859.696 1121.5,843.5C 1127.17,843.5 1132.83,843.5 1138.5,843.5C 1130.36,867.242 1122.03,890.909 1113.5,914.5C 1108.13,914.828 1102.79,914.495 1097.5,913.5C 1088.63,890.22 1079.96,866.887 1071.5,843.5 Z"/></g>
<g><path style="opacity:0.917" fill="#656665" d="M 1318.5,843.5 C 1324.17,843.5 1329.83,843.5 1335.5,843.5C 1335.5,867.167 1335.5,890.833 1335.5,914.5C 1329.83,914.5 1324.17,914.5 1318.5,914.5C 1318.5,890.833 1318.5,867.167 1318.5,843.5 Z"/></g>
<g><path style="opacity:0.94" fill="#656665" d="M 1393.5,843.5 C 1399.54,843.171 1405.54,843.504 1411.5,844.5C 1416.97,860.253 1422.64,875.919 1428.5,891.5C 1434.23,875.981 1439.56,860.314 1444.5,844.5C 1450.13,843.505 1455.79,843.171 1461.5,843.5C 1451.09,874.226 1439.59,904.559 1427,934.5C 1418.02,946.936 1406.19,950.769 1391.5,946C 1392.49,942.241 1393.32,938.407 1394,934.5C 1399.23,934.86 1404.39,934.027 1409.5,932C 1414.54,926.418 1417.87,919.918 1419.5,912.5C 1410.83,889.482 1402.16,866.482 1393.5,843.5 Z"/></g>
<g><path style="opacity:0.938" fill="#656665" d="M 1832.5,843.5 C 1838.21,843.171 1843.87,843.505 1849.5,844.5C 1853.51,859.55 1857.68,874.55 1862,889.5C 1866.12,874.191 1870.62,859.024 1875.5,844C 1880.75,843.196 1885.92,843.363 1891,844.5C 1895.49,859.455 1899.82,874.455 1904,889.5C 1908.47,874.592 1912.64,859.592 1916.5,844.5C 1922.14,843.337 1927.8,843.17 1933.5,844C 1926.28,867.024 1919.45,890.191 1913,913.5C 1907.93,914.471 1902.76,914.805 1897.5,914.5C 1892.9,898.371 1887.9,882.371 1882.5,866.5C 1877.09,882.386 1872.09,898.386 1867.5,914.5C 1862.24,914.805 1857.07,914.471 1852,913.5C 1845.18,890.23 1838.68,866.896 1832.5,843.5 Z"/></g>
</svg>
